<mxfile host="app.diagrams.net" modified="2023-12-20T15:39:21.526Z" agent="Mozilla/5.0 (Windows NT 10.0; Win64; x64) AppleWebKit/537.36 (KHTML, like Gecko) Chrome/119.0.0.0 Safari/537.36 OPR/105.0.0.0" etag="xZx85yKSGqRrEocnOV6e" version="22.1.11" type="device">
  <diagram name="Страница — 1" id="e9hyXT8rFTvauHconSTB">
    <mxGraphModel dx="1062" dy="565" grid="1" gridSize="10" guides="1" tooltips="1" connect="1" arrows="1" fold="1" page="1" pageScale="1" pageWidth="827" pageHeight="1169" math="0" shadow="0">
      <root>
        <mxCell id="0" />
        <mxCell id="1" parent="0" />
        <mxCell id="k0ivjKYtKrGk9RfD2plQ-2" value="" style="rounded=0;whiteSpace=wrap;html=1;" vertex="1" parent="1">
          <mxGeometry x="130" y="80" width="487" height="970" as="geometry" />
        </mxCell>
        <mxCell id="k0ivjKYtKrGk9RfD2plQ-75" style="edgeStyle=none;shape=connector;rounded=0;orthogonalLoop=1;jettySize=auto;html=1;exitX=1;exitY=0.3333333333333333;exitDx=0;exitDy=0;exitPerimeter=0;entryX=0;entryY=0.5;entryDx=0;entryDy=0;labelBackgroundColor=default;strokeColor=default;align=center;verticalAlign=middle;fontFamily=Helvetica;fontSize=11;fontColor=default;endArrow=none;endFill=0;" edge="1" parent="1" source="k0ivjKYtKrGk9RfD2plQ-3" target="k0ivjKYtKrGk9RfD2plQ-6">
          <mxGeometry relative="1" as="geometry" />
        </mxCell>
        <mxCell id="k0ivjKYtKrGk9RfD2plQ-76" style="edgeStyle=none;shape=connector;rounded=0;orthogonalLoop=1;jettySize=auto;html=1;exitX=1;exitY=0.3333333333333333;exitDx=0;exitDy=0;exitPerimeter=0;entryX=0;entryY=0.5;entryDx=0;entryDy=0;labelBackgroundColor=default;strokeColor=default;align=center;verticalAlign=middle;fontFamily=Helvetica;fontSize=11;fontColor=default;endArrow=none;endFill=0;" edge="1" parent="1" source="k0ivjKYtKrGk9RfD2plQ-3" target="k0ivjKYtKrGk9RfD2plQ-38">
          <mxGeometry relative="1" as="geometry" />
        </mxCell>
        <mxCell id="k0ivjKYtKrGk9RfD2plQ-77" style="edgeStyle=none;shape=connector;rounded=0;orthogonalLoop=1;jettySize=auto;html=1;exitX=1;exitY=0.3333333333333333;exitDx=0;exitDy=0;exitPerimeter=0;entryX=0;entryY=0.5;entryDx=0;entryDy=0;labelBackgroundColor=default;strokeColor=default;align=center;verticalAlign=middle;fontFamily=Helvetica;fontSize=11;fontColor=default;endArrow=none;endFill=0;" edge="1" parent="1" source="k0ivjKYtKrGk9RfD2plQ-3" target="k0ivjKYtKrGk9RfD2plQ-63">
          <mxGeometry relative="1" as="geometry" />
        </mxCell>
        <mxCell id="k0ivjKYtKrGk9RfD2plQ-78" style="edgeStyle=none;shape=connector;rounded=0;orthogonalLoop=1;jettySize=auto;html=1;exitX=1;exitY=0.3333333333333333;exitDx=0;exitDy=0;exitPerimeter=0;entryX=0;entryY=0.5;entryDx=0;entryDy=0;labelBackgroundColor=default;strokeColor=default;align=center;verticalAlign=middle;fontFamily=Helvetica;fontSize=11;fontColor=default;endArrow=none;endFill=0;" edge="1" parent="1" source="k0ivjKYtKrGk9RfD2plQ-3" target="k0ivjKYtKrGk9RfD2plQ-64">
          <mxGeometry relative="1" as="geometry" />
        </mxCell>
        <mxCell id="k0ivjKYtKrGk9RfD2plQ-79" style="edgeStyle=none;shape=connector;rounded=0;orthogonalLoop=1;jettySize=auto;html=1;exitX=1;exitY=0.3333333333333333;exitDx=0;exitDy=0;exitPerimeter=0;entryX=0;entryY=0.5;entryDx=0;entryDy=0;labelBackgroundColor=default;strokeColor=default;align=center;verticalAlign=middle;fontFamily=Helvetica;fontSize=11;fontColor=default;endArrow=none;endFill=0;" edge="1" parent="1" source="k0ivjKYtKrGk9RfD2plQ-3" target="k0ivjKYtKrGk9RfD2plQ-43">
          <mxGeometry relative="1" as="geometry" />
        </mxCell>
        <mxCell id="k0ivjKYtKrGk9RfD2plQ-3" value="Пользователь" style="shape=umlActor;verticalLabelPosition=bottom;verticalAlign=top;html=1;outlineConnect=0;" vertex="1" parent="1">
          <mxGeometry x="180" y="780" width="30" height="60" as="geometry" />
        </mxCell>
        <mxCell id="k0ivjKYtKrGk9RfD2plQ-27" style="edgeStyle=none;shape=connector;rounded=0;orthogonalLoop=1;jettySize=auto;html=1;exitX=0;exitY=0.3333333333333333;exitDx=0;exitDy=0;exitPerimeter=0;entryX=1;entryY=0.5;entryDx=0;entryDy=0;labelBackgroundColor=default;strokeColor=default;align=center;verticalAlign=middle;fontFamily=Helvetica;fontSize=11;fontColor=default;endArrow=none;endFill=0;" edge="1" parent="1" source="k0ivjKYtKrGk9RfD2plQ-4" target="k0ivjKYtKrGk9RfD2plQ-9">
          <mxGeometry relative="1" as="geometry" />
        </mxCell>
        <mxCell id="k0ivjKYtKrGk9RfD2plQ-4" value="Администратор" style="shape=umlActor;verticalLabelPosition=bottom;verticalAlign=top;html=1;outlineConnect=0;" vertex="1" parent="1">
          <mxGeometry x="560" y="590" width="30" height="60" as="geometry" />
        </mxCell>
        <mxCell id="k0ivjKYtKrGk9RfD2plQ-61" style="edgeStyle=none;shape=connector;rounded=0;orthogonalLoop=1;jettySize=auto;html=1;exitX=1;exitY=0.5;exitDx=0;exitDy=0;labelBackgroundColor=default;strokeColor=default;align=center;verticalAlign=middle;fontFamily=Helvetica;fontSize=11;fontColor=default;endArrow=none;endFill=0;entryX=0;entryY=0.3333333333333333;entryDx=0;entryDy=0;entryPerimeter=0;" edge="1" parent="1" source="k0ivjKYtKrGk9RfD2plQ-6" target="k0ivjKYtKrGk9RfD2plQ-4">
          <mxGeometry relative="1" as="geometry">
            <mxPoint x="550" y="570" as="targetPoint" />
          </mxGeometry>
        </mxCell>
        <mxCell id="k0ivjKYtKrGk9RfD2plQ-6" value="Поиск по инструментам" style="ellipse;whiteSpace=wrap;html=1;" vertex="1" parent="1">
          <mxGeometry x="360" y="620" width="120" height="70" as="geometry" />
        </mxCell>
        <mxCell id="k0ivjKYtKrGk9RfD2plQ-62" style="edgeStyle=none;shape=connector;rounded=0;orthogonalLoop=1;jettySize=auto;html=1;exitX=1;exitY=0.5;exitDx=0;exitDy=0;labelBackgroundColor=default;strokeColor=default;align=center;verticalAlign=middle;fontFamily=Helvetica;fontSize=11;fontColor=default;endArrow=none;endFill=0;entryX=0;entryY=0.3333333333333333;entryDx=0;entryDy=0;entryPerimeter=0;" edge="1" parent="1" source="k0ivjKYtKrGk9RfD2plQ-38" target="k0ivjKYtKrGk9RfD2plQ-4">
          <mxGeometry relative="1" as="geometry">
            <mxPoint x="550" y="570" as="targetPoint" />
          </mxGeometry>
        </mxCell>
        <mxCell id="k0ivjKYtKrGk9RfD2plQ-41" style="edgeStyle=none;shape=connector;rounded=0;orthogonalLoop=1;jettySize=auto;html=1;exitX=1;exitY=0.5;exitDx=0;exitDy=0;entryX=0;entryY=0.3333333333333333;entryDx=0;entryDy=0;entryPerimeter=0;labelBackgroundColor=default;strokeColor=default;align=center;verticalAlign=middle;fontFamily=Helvetica;fontSize=11;fontColor=default;endArrow=none;endFill=0;" edge="1" parent="1" source="k0ivjKYtKrGk9RfD2plQ-40" target="k0ivjKYtKrGk9RfD2plQ-4">
          <mxGeometry relative="1" as="geometry" />
        </mxCell>
        <mxCell id="k0ivjKYtKrGk9RfD2plQ-58" style="edgeStyle=none;shape=connector;rounded=0;orthogonalLoop=1;jettySize=auto;html=1;exitX=1;exitY=0.5;exitDx=0;exitDy=0;labelBackgroundColor=default;strokeColor=default;align=center;verticalAlign=middle;fontFamily=Helvetica;fontSize=11;fontColor=default;endArrow=none;endFill=0;entryX=0;entryY=0.3333333333333333;entryDx=0;entryDy=0;entryPerimeter=0;" edge="1" parent="1" source="k0ivjKYtKrGk9RfD2plQ-42" target="k0ivjKYtKrGk9RfD2plQ-4">
          <mxGeometry relative="1" as="geometry">
            <mxPoint x="550" y="570" as="targetPoint" />
          </mxGeometry>
        </mxCell>
        <mxCell id="k0ivjKYtKrGk9RfD2plQ-42" value="Получить список&amp;nbsp; популярных инструментов" style="ellipse;whiteSpace=wrap;html=1;" vertex="1" parent="1">
          <mxGeometry x="360" y="540" width="120" height="70" as="geometry" />
        </mxCell>
        <mxCell id="k0ivjKYtKrGk9RfD2plQ-43" value="Получить список всех инструментов" style="ellipse;whiteSpace=wrap;html=1;" vertex="1" parent="1">
          <mxGeometry x="360" y="940" width="120" height="70" as="geometry" />
        </mxCell>
        <mxCell id="k0ivjKYtKrGk9RfD2plQ-50" style="edgeStyle=none;shape=connector;rounded=0;orthogonalLoop=1;jettySize=auto;html=1;exitX=1;exitY=0.5;exitDx=0;exitDy=0;entryX=0.372;entryY=0.044;entryDx=0;entryDy=0;dashed=1;labelBackgroundColor=default;strokeColor=default;align=center;verticalAlign=middle;fontFamily=Helvetica;fontSize=11;fontColor=default;endArrow=open;endFill=0;entryPerimeter=0;" edge="1" parent="1" source="k0ivjKYtKrGk9RfD2plQ-46" target="k0ivjKYtKrGk9RfD2plQ-40">
          <mxGeometry relative="1" as="geometry" />
        </mxCell>
        <mxCell id="k0ivjKYtKrGk9RfD2plQ-46" value="Получить количество проданных инструментов по периодам" style="ellipse;whiteSpace=wrap;html=1;" vertex="1" parent="1">
          <mxGeometry x="160" y="200" width="120" height="70" as="geometry" />
        </mxCell>
        <mxCell id="k0ivjKYtKrGk9RfD2plQ-49" style="edgeStyle=none;shape=connector;rounded=0;orthogonalLoop=1;jettySize=auto;html=1;exitX=1;exitY=0.5;exitDx=0;exitDy=0;entryX=0;entryY=0;entryDx=0;entryDy=0;dashed=1;labelBackgroundColor=default;strokeColor=default;align=center;verticalAlign=middle;fontFamily=Helvetica;fontSize=11;fontColor=default;endArrow=open;endFill=0;" edge="1" parent="1" source="k0ivjKYtKrGk9RfD2plQ-48" target="k0ivjKYtKrGk9RfD2plQ-40">
          <mxGeometry relative="1" as="geometry" />
        </mxCell>
        <mxCell id="k0ivjKYtKrGk9RfD2plQ-48" value="Получить общее количество инструментов" style="ellipse;whiteSpace=wrap;html=1;" vertex="1" parent="1">
          <mxGeometry x="160" y="275" width="120" height="70" as="geometry" />
        </mxCell>
        <mxCell id="k0ivjKYtKrGk9RfD2plQ-51" value="&lt;font style=&quot;font-size: 10px;&quot;&gt;&amp;lt;&amp;lt;extend&amp;gt;&amp;gt;&lt;/font&gt;" style="edgeLabel;html=1;align=center;verticalAlign=middle;resizable=0;points=[];fontSize=11;fontFamily=Helvetica;fontColor=default;" vertex="1" connectable="0" parent="1">
          <mxGeometry x="319.99940603765117" y="344.9958166224716" as="geometry" />
        </mxCell>
        <mxCell id="k0ivjKYtKrGk9RfD2plQ-56" style="edgeStyle=none;shape=connector;rounded=0;orthogonalLoop=1;jettySize=auto;html=1;exitX=1;exitY=0.5;exitDx=0;exitDy=0;dashed=1;labelBackgroundColor=default;strokeColor=default;align=center;verticalAlign=middle;fontFamily=Helvetica;fontSize=11;fontColor=default;endArrow=open;endFill=0;entryX=0.62;entryY=0.024;entryDx=0;entryDy=0;entryPerimeter=0;" edge="1" parent="1" source="k0ivjKYtKrGk9RfD2plQ-54" target="k0ivjKYtKrGk9RfD2plQ-40">
          <mxGeometry relative="1" as="geometry">
            <mxPoint x="430" y="320" as="targetPoint" />
          </mxGeometry>
        </mxCell>
        <mxCell id="k0ivjKYtKrGk9RfD2plQ-54" value="Получить информацию о проданных инструментах" style="ellipse;whiteSpace=wrap;html=1;" vertex="1" parent="1">
          <mxGeometry x="160" y="120" width="120" height="70" as="geometry" />
        </mxCell>
        <mxCell id="k0ivjKYtKrGk9RfD2plQ-8" value="Добавление инструмента" style="ellipse;whiteSpace=wrap;html=1;" vertex="1" parent="1">
          <mxGeometry x="160" y="350" width="120" height="70" as="geometry" />
        </mxCell>
        <mxCell id="k0ivjKYtKrGk9RfD2plQ-9" value="Управление инструментами" style="ellipse;whiteSpace=wrap;html=1;" vertex="1" parent="1">
          <mxGeometry x="360" y="460" width="120" height="70" as="geometry" />
        </mxCell>
        <mxCell id="k0ivjKYtKrGk9RfD2plQ-18" style="edgeStyle=none;shape=connector;rounded=0;orthogonalLoop=1;jettySize=auto;html=1;exitX=1;exitY=0.5;exitDx=0;exitDy=0;entryX=0.021;entryY=0.361;entryDx=0;entryDy=0;dashed=1;labelBackgroundColor=default;strokeColor=default;align=center;verticalAlign=middle;fontFamily=Helvetica;fontSize=11;fontColor=default;endArrow=open;endFill=0;entryPerimeter=0;" edge="1" parent="1" source="k0ivjKYtKrGk9RfD2plQ-12" target="k0ivjKYtKrGk9RfD2plQ-9">
          <mxGeometry relative="1" as="geometry" />
        </mxCell>
        <mxCell id="k0ivjKYtKrGk9RfD2plQ-12" value="Удаление инструмента" style="ellipse;whiteSpace=wrap;html=1;" vertex="1" parent="1">
          <mxGeometry x="160" y="430" width="120" height="70" as="geometry" />
        </mxCell>
        <mxCell id="k0ivjKYtKrGk9RfD2plQ-13" value="Изменение инструмента" style="ellipse;whiteSpace=wrap;html=1;" vertex="1" parent="1">
          <mxGeometry x="160" y="510" width="120" height="70" as="geometry" />
        </mxCell>
        <mxCell id="k0ivjKYtKrGk9RfD2plQ-16" style="rounded=0;orthogonalLoop=1;jettySize=auto;html=1;exitX=1;exitY=0.5;exitDx=0;exitDy=0;dashed=1;endArrow=open;endFill=0;entryX=0.196;entryY=0.116;entryDx=0;entryDy=0;entryPerimeter=0;" edge="1" parent="1" source="k0ivjKYtKrGk9RfD2plQ-8" target="k0ivjKYtKrGk9RfD2plQ-9">
          <mxGeometry relative="1" as="geometry">
            <mxPoint x="370" y="430" as="targetPoint" />
          </mxGeometry>
        </mxCell>
        <mxCell id="k0ivjKYtKrGk9RfD2plQ-19" style="edgeStyle=none;shape=connector;rounded=0;orthogonalLoop=1;jettySize=auto;html=1;exitX=1;exitY=0.5;exitDx=0;exitDy=0;dashed=1;labelBackgroundColor=default;strokeColor=default;align=center;verticalAlign=middle;fontFamily=Helvetica;fontSize=11;fontColor=default;endArrow=open;endFill=0;entryX=0.012;entryY=0.551;entryDx=0;entryDy=0;entryPerimeter=0;" edge="1" parent="1" source="k0ivjKYtKrGk9RfD2plQ-13" target="k0ivjKYtKrGk9RfD2plQ-9">
          <mxGeometry relative="1" as="geometry">
            <mxPoint x="360" y="510" as="targetPoint" />
          </mxGeometry>
        </mxCell>
        <mxCell id="k0ivjKYtKrGk9RfD2plQ-40" value="Анализ продукции" style="ellipse;whiteSpace=wrap;html=1;" vertex="1" parent="1">
          <mxGeometry x="360" y="380" width="120" height="70" as="geometry" />
        </mxCell>
        <mxCell id="k0ivjKYtKrGk9RfD2plQ-65" style="edgeStyle=none;shape=connector;rounded=0;orthogonalLoop=1;jettySize=auto;html=1;exitX=1;exitY=0.5;exitDx=0;exitDy=0;labelBackgroundColor=default;strokeColor=default;align=center;verticalAlign=middle;fontFamily=Helvetica;fontSize=11;fontColor=default;endArrow=none;endFill=0;entryX=0;entryY=0.3333333333333333;entryDx=0;entryDy=0;entryPerimeter=0;" edge="1" parent="1" source="k0ivjKYtKrGk9RfD2plQ-63" target="k0ivjKYtKrGk9RfD2plQ-4">
          <mxGeometry relative="1" as="geometry">
            <mxPoint x="550" y="570" as="targetPoint" />
          </mxGeometry>
        </mxCell>
        <mxCell id="k0ivjKYtKrGk9RfD2plQ-63" value="Оставить отзыв" style="ellipse;whiteSpace=wrap;html=1;" vertex="1" parent="1">
          <mxGeometry x="360" y="780" width="120" height="70" as="geometry" />
        </mxCell>
        <mxCell id="k0ivjKYtKrGk9RfD2plQ-66" style="edgeStyle=none;shape=connector;rounded=0;orthogonalLoop=1;jettySize=auto;html=1;exitX=1;exitY=0.5;exitDx=0;exitDy=0;labelBackgroundColor=default;strokeColor=default;align=center;verticalAlign=middle;fontFamily=Helvetica;fontSize=11;fontColor=default;endArrow=none;endFill=0;entryX=0;entryY=0.3333333333333333;entryDx=0;entryDy=0;entryPerimeter=0;" edge="1" parent="1" source="k0ivjKYtKrGk9RfD2plQ-38" target="k0ivjKYtKrGk9RfD2plQ-4">
          <mxGeometry relative="1" as="geometry">
            <mxPoint x="570" y="610" as="targetPoint" />
          </mxGeometry>
        </mxCell>
        <mxCell id="k0ivjKYtKrGk9RfD2plQ-64" value="Получить список отзывов" style="ellipse;whiteSpace=wrap;html=1;" vertex="1" parent="1">
          <mxGeometry x="360" y="860" width="120" height="70" as="geometry" />
        </mxCell>
        <mxCell id="k0ivjKYtKrGk9RfD2plQ-67" value="" style="edgeStyle=none;shape=connector;rounded=0;orthogonalLoop=1;jettySize=auto;html=1;exitX=1;exitY=0.5;exitDx=0;exitDy=0;labelBackgroundColor=default;strokeColor=default;align=center;verticalAlign=middle;fontFamily=Helvetica;fontSize=11;fontColor=default;endArrow=none;endFill=0;entryX=0;entryY=0.3333333333333333;entryDx=0;entryDy=0;entryPerimeter=0;" edge="1" parent="1" source="k0ivjKYtKrGk9RfD2plQ-64" target="k0ivjKYtKrGk9RfD2plQ-4">
          <mxGeometry relative="1" as="geometry">
            <mxPoint x="550" y="570" as="targetPoint" />
            <mxPoint x="310" y="925" as="sourcePoint" />
          </mxGeometry>
        </mxCell>
        <mxCell id="k0ivjKYtKrGk9RfD2plQ-38" value="Заказ инструмента" style="ellipse;whiteSpace=wrap;html=1;" vertex="1" parent="1">
          <mxGeometry x="360" y="700" width="120" height="70" as="geometry" />
        </mxCell>
        <mxCell id="k0ivjKYtKrGk9RfD2plQ-70" style="edgeStyle=none;shape=connector;rounded=0;orthogonalLoop=1;jettySize=auto;html=1;exitX=1;exitY=0.5;exitDx=0;exitDy=0;entryX=0;entryY=0.3333333333333333;entryDx=0;entryDy=0;entryPerimeter=0;labelBackgroundColor=default;strokeColor=default;align=center;verticalAlign=middle;fontFamily=Helvetica;fontSize=11;fontColor=default;endArrow=none;endFill=0;" edge="1" parent="1" source="k0ivjKYtKrGk9RfD2plQ-43" target="k0ivjKYtKrGk9RfD2plQ-4">
          <mxGeometry relative="1" as="geometry" />
        </mxCell>
        <mxCell id="k0ivjKYtKrGk9RfD2plQ-74" style="edgeStyle=none;shape=connector;rounded=0;orthogonalLoop=1;jettySize=auto;html=1;exitX=1;exitY=0.3333333333333333;exitDx=0;exitDy=0;exitPerimeter=0;entryX=0.001;entryY=0.423;entryDx=0;entryDy=0;entryPerimeter=0;labelBackgroundColor=default;strokeColor=default;align=center;verticalAlign=middle;fontFamily=Helvetica;fontSize=11;fontColor=default;endArrow=none;endFill=0;" edge="1" parent="1" source="k0ivjKYtKrGk9RfD2plQ-3" target="k0ivjKYtKrGk9RfD2plQ-42">
          <mxGeometry relative="1" as="geometry" />
        </mxCell>
        <mxCell id="k0ivjKYtKrGk9RfD2plQ-83" value="&lt;font style=&quot;font-size: 10px;&quot;&gt;&amp;lt;&amp;lt;extend&amp;gt;&amp;gt;&lt;/font&gt;" style="edgeLabel;html=1;align=center;verticalAlign=middle;resizable=0;points=[];fontSize=11;fontFamily=Helvetica;fontColor=default;" vertex="1" connectable="0" parent="1">
          <mxGeometry x="319.99940603765117" y="419.9958166224716" as="geometry" />
        </mxCell>
        <mxCell id="k0ivjKYtKrGk9RfD2plQ-84" value="&lt;font style=&quot;font-size: 10px;&quot;&gt;&amp;lt;&amp;lt;extend&amp;gt;&amp;gt;&lt;/font&gt;" style="edgeLabel;html=1;align=center;verticalAlign=middle;resizable=0;points=[];fontSize=11;fontFamily=Helvetica;fontColor=default;" vertex="1" connectable="0" parent="1">
          <mxGeometry x="319.99940603765117" y="469.9958166224716" as="geometry" />
        </mxCell>
        <mxCell id="k0ivjKYtKrGk9RfD2plQ-85" value="&lt;font style=&quot;font-size: 10px;&quot;&gt;&amp;lt;&amp;lt;extend&amp;gt;&amp;gt;&lt;/font&gt;" style="edgeLabel;html=1;align=center;verticalAlign=middle;resizable=0;points=[];fontSize=11;fontFamily=Helvetica;fontColor=default;" vertex="1" connectable="0" parent="1">
          <mxGeometry x="329.99940603765117" y="289.9958166224716" as="geometry" />
        </mxCell>
        <mxCell id="k0ivjKYtKrGk9RfD2plQ-86" value="&lt;font style=&quot;font-size: 10px;&quot;&gt;&amp;lt;&amp;lt;extend&amp;gt;&amp;gt;&lt;/font&gt;" style="edgeLabel;html=1;align=center;verticalAlign=middle;resizable=0;points=[];fontSize=11;fontFamily=Helvetica;fontColor=default;" vertex="1" connectable="0" parent="1">
          <mxGeometry x="349.99940603765117" y="249.99581662247158" as="geometry" />
        </mxCell>
        <mxCell id="k0ivjKYtKrGk9RfD2plQ-87" value="&lt;font style=&quot;font-size: 10px;&quot;&gt;&amp;lt;&amp;lt;extend&amp;gt;&amp;gt;&lt;/font&gt;" style="edgeLabel;html=1;align=center;verticalAlign=middle;resizable=0;points=[];fontSize=11;fontFamily=Helvetica;fontColor=default;" vertex="1" connectable="0" parent="1">
          <mxGeometry x="319.99940603765117" y="519.9958166224716" as="geometry" />
        </mxCell>
      </root>
    </mxGraphModel>
  </diagram>
</mxfile>
